# AST/ASF file generated using VICON BodyLanguage
# -----------------------------------------------
:version 1.10
:name VICON
:units
  mass 1.0
  length 0.45
  angle deg
:documentation
   .ast/.asf automatically generated from VICON data using
   VICON BodyBuilder and BodyLanguage model FoxedUp or BRILLIANT.MOD
:root
   order TX TY TZ RX RY RZ
   axis XYZ
   position 0 0 0  
   orientation 0 0 0 
:bonedata
  begin
     id 1 
     name lhipjoint
     direction 0.707368 -0.647095 0.284426 
     length 2.60678 
     axis 0 0 0  XYZ
  end
  begin
     id 2 
     name lfemur
     direction 0.34202 -0.939693 0  
     length 6.63812  
     axis 0 0 20  XYZ
    dof rx ry rz
    limits (-160.0 20.0)
           (-70.0 70.0)
           (-60.0 70.0)
  end
  begin
     id 3 
     name ltibia
     direction 0.34202 -0.939693 0   
     length 7.51178   
     axis 0 0 20   XYZ
    dof rx
    limits (-10.0 170.0)
  end
  begin
     id 4 
     name lfoot
     direction 0.121251 -0.333133 0.935051   
     length 1.83716   
     axis -90 7.62852e-016 20   XYZ
    dof rx rz
    limits (-45.0 90.0)
           (-70.0 20.0)
  end
  begin
     id 5 
     name ltoes
     direction 1.53611e-011 -4.21962e-011 1   
     length 0.916133   
     axis -90 7.62852e-016 20   XYZ
    dof rx
    limits (-90.0 20.0)
  end
  begin
     id 6 
     name rhipjoint
     direction -0.692419 -0.660507 0.290321   
     length 2.55385  
     axis 0 0 0  XYZ 
  end
  begin
     id 7 
     name rfemur
     direction -0.34202 -0.939693 0   
     length 7.29079   
     axis 0 0 -20   XYZ
    dof rx ry rz
    limits (-160.0 20.0)
           (-70.0 70.0)
           (-70.0 60.0)
  end
  begin
     id 8 
     name rtibia
     direction -0.34202 -0.939693 0   
     length 7.47143   
     axis 0 0 -20   XYZ
    dof rx
    limits (-10.0 170.0)
 end
 begin
     id 9 
     name rfoot
     direction -0.119907 -0.329441 0.936532   
     length 1.79439  
     axis -90 -7.62852e-016 -20   XYZ
    dof rx rz
    limits (-45.0 90.0)
           (-20.0 70.0)
  end
  begin
     id 10 
     name rtoes
     direction -1.53571e-011 -4.21961e-011 1   
     length 0.896039   
     axis -90 -7.62852e-016 -20   XYZ
    dof rx
    limits (-90.0 20.0)
  end
  begin
     id 11 
     name lowerback
     direction 0.0367721 0.992912 -0.113016   
     length 1.73542   
     axis 0 0 0   XYZ
    dof rx ry rz
    limits (-20.0 45.0)
           (-30.0 30.0)
           (-30.0 30.0)
  end
  begin
     id 12 
     name upperback
     direction -0.000314626 0.990678 0.136227   
     length 1.7514   
     axis 0 0 0   XYZ
    dof rx ry rz
    limits (-20.0 45.0)
           (-30.0 30.0)
           (-30.0 30.0)
  end
  begin
     id 13 
     name thorax
     direction -0.0226159 0.981151 0.191917   
     length 1.71471   
     axis 0 0 0   XYZ
    dof rx ry rz
    limits (-20.0 45.0)
           (-30.0 30.0)
           (-30.0 30.0)
  end
  begin
     id 14 
     name lowerneck
     direction 0.0219333 0.998071 0.0580739   
     length 1.65882   
     axis 0 0 0   XYZ
    dof rx ry rz
    limits (-20.0 45.0)
           (-30.0 30.0)
           (-30.0 30.0)
  end
  begin
     id 15 
     name upperneck
     direction 0.0384529 0.980058 -0.194957   
     length 1.6612   
     axis 0 0 0   XYZ
    dof rx ry rz
    limits (-20.0 45.0)
           (-30.0 30.0)
           (-30.0 30.0)
  end
  begin
     id 16
     name head
     direction 0.00592123 0.997421 -0.0715234  
     length 1.68077  
     axis 0 0 0   XYZ
    dof rx ry rz
    limits (-20.0 45.0)
           (-30.0 30.0)
           (-30.0 30.0)
  end
  begin
     id 17 
     name lclavicle
     direction 0.904803 0.417826 0.0821728  
     length 3.42227  
     axis 0 0 0   XYZ
    dof ry rz
    limits (-20.0 10.0)
           (0.0 20.0)
  end
  begin
     id 18 
     name lhumerus
     direction 1 -4.48965e-011 -2.68786e-027   
     length 5.11878   
     axis -180 -30 -90   XYZ
    dof rx ry rz
    limits (-60.0 90.0)
           (-90.0 90.0)
           (-90.0 90.0)
  end
  begin
     id 19
     name lradius
     direction 1 -4.48965e-011 2.61168e-028   
     length 3.59971   
     axis -180 -30 -90   XYZ
    dof rx
    limits (-10.0 170.0)
  end
  begin
     id 20
     name lwrist
     direction 1 -4.48965e-011 1.58672e-027   
     length 1.79985   
     axis -1.65735e-015 90 90   XYZ
    dof ry
    limits (-180.0 0.0)
 end
  begin
     id 21 
     name lhand
     direction 1 -4.48942e-011 3.17344e-027   
     length 0.62877   
     axis -2.02492e-015 90 90   XYZ
    dof rx rz
    limits (-90.0 90.0)
           (-45.0 45.0)
  end
  begin
     id 22 
     name lfingers
     direction 1 -4.49011e-011 6.34687e-027   
     length 0.506931   
     axis -4.04985e-015 90 90   XYZ
    dof rx
    limits (0.0 90.0)
  end
  begin
     id 23
     name lthumb
     direction 0.707107 -6.34982e-011 0.707107   
     length 0.727854   
     axis -90 45 2.85299e-015   XYZ
    dof rx rz
    limits (-45.0 45.0)
           (-45.0 45.0)
  end
  begin
     id 24 
     name rclavicle
     direction -0.945647 0.32488 0.0143075   
     length 3.52737  
     axis 0 0 0   XYZ 
    dof ry rz
    limits (-10.0 20.0)
           (-20.0 0.0)
  end
  begin
     id 25 
     name rhumerus
     direction -1 -4.48962e-011 1.92182e-027  
     length 5.4902   
     axis -180 30 90   XYZ
    dof rx ry rz
    limits (-90.0 60.0)
           (-90.0 90.0)
           (-90.0 90.0)
  end
  begin
     id 26 
     name rradius
     direction -1 -4.48967e-011 -5.97193e-028   
     length 3.20659   
     axis -180 30 90   XYZ
    dof rx
    limits (-10.0 170.0)
  end
  begin
     id 27 
     name rwrist
     direction -1 -4.48964e-011 1.58672e-027   
     length 1.6033   
     axis -1.65735e-015 -90 -90   XYZ
    dof ry
    limits (-180.0 0.0)
  end
  begin
     id 28
     name rhand
     direction -1 -4.49006e-011 3.17344e-027   
     length 0.691885   
     axis -2.02492e-015 -90 -90   XYZ
    dof rx rz
    limits (-90.0 90.0)
           (-45.0 45.0)
  end
  begin
     id 29
     name rfingers
     direction -1 -4.48908e-011 6.34687e-027   
     length 0.557815   
     axis -4.04985e-015 -90 -90   XYZ
    dof rx
    limits (0.0 90.0)
  end
  begin
     id 30
     name rthumb
     direction -0.707107 -6.34999e-011 0.707107   
     length 0.800915   
     axis -90 -45 -2.85299e-015   XYZ
    dof rx rz
    limits (-45.0 45.0)
           (-45.0 45.0)
  end
:hierarchy
  begin
    root lhipjoint rhipjoint lowerback
    lhipjoint lfemur
    lfemur ltibia
    ltibia lfoot
    lfoot ltoes
    rhipjoint rfemur
    rfemur rtibia
    rtibia rfoot
    rfoot rtoes
    lowerback upperback
    upperback thorax
    thorax lowerneck lclavicle rclavicle
    lowerneck upperneck
    upperneck head
    lclavicle lhumerus
    lhumerus lradius
    lradius lwrist
    lwrist lhand lthumb
    lhand lfingers
    rclavicle rhumerus
    rhumerus rradius
    rradius rwrist
    rwrist rhand rthumb
    rhand rfingers
  end

#!OML:ASF I:\Actors\actors\Patient Classification 1\Patient 1\Session 1\Subject1.ASF
:FULLY-SPECIFIED
:DEGREES
95
root 0.606078 17.4469 9.22781 10.0873 -2.23932 -9.61191
lowerback 0.249952 1.56189 7.6171
upperback -9.82636 2.65421 1.02821
thorax -10.3778 0.689495 -3.37838
lowerneck -3.87346 -12.1801 -10.2169
upperneck 21.8966 -18.2073 9.87988
head 9.38064 -8.6385 3.09404
rclavicle -2.06736e-014 3.97569e-015
rhumerus -46.3897 -14.2221 -78.8666
rradius 23.7322
rwrist 30.8012
rhand 10.1095 -35.4098
rfingers 7.12502
rthumb 35.2302 -61.9118
lclavicle -2.06736e-014 3.97569e-015
lhumerus -50.7737 10.6559 77.9645
lradius 25.3449
lwrist -17.277
lhand -16.6781 -6.61863
lfingers 7.12502
lthumb 9.54598 23.1451
rfemur -5.50658 25.6787 25.865
rtibia 2.14989
rfoot -10.4269 -23.9944
rtoes 1.85612
lfemur 4.17474 -43.81 -10.3557
ltibia -4.58577
lfoot -20.8034 52.381
ltoes 9.53215
96
root 0.604513 17.4461 9.22978 10.0725 -2.24909 -9.59939
lowerback 0.228582 1.54688 7.57385
upperback -9.81768 2.63069 1.05265
thorax -10.3595 0.68401 -3.32534
lowerneck -3.9658 -12.169 -10.076
upperneck 21.9747 -18.1691 9.71491
head 9.38953 -8.61855 3.01756
rclavicle 2.3059e-014 -1.11319e-014
rhumerus -46.3327 -14.3884 -78.7018
rradius 23.6134
rwrist 30.9595
rhand 10.0561 -35.293
rfingers 7.12502
rthumb 35.1796 -61.8069
lclavicle 2.3059e-014 -1.11319e-014
lhumerus -50.7626 10.8695 77.9023
lradius 25.4136
lwrist -17.133
lhand -16.807 -6.69301
lfingers 7.12502
lthumb 9.42161 23.0764
rfemur -5.46453 25.7328 25.8677
rtibia 2.13083
rfoot -10.466 -24.0501
rtoes 1.89634
lfemur 4.22932 -43.8476 -10.4019
ltibia -4.60358
lfoot -20.8226 52.4264
ltoes 9.59187
97
root 0.603349 17.4458 9.23107 10.0498 -2.25369 -9.60217
lowerback 0.218088 1.53998 7.56339
upperback -9.80154 2.62017 1.06998
thorax -10.3368 0.681978 -3.29949
lowerneck -4.0783 -12.1956 -9.96874
upperneck 22.0798 -18.1871 9.56503
head 9.42316 -8.62452 2.94104
rclavicle -9.14409e-015 4.77083e-015
rhumerus -46.2953 -14.5845 -78.5266
rradius 23.5719
rwrist 31.0535
rhand 10.0531 -35.2472
rfingers 7.12502
rthumb 35.1767 -61.7618
lclavicle -9.14409e-015 4.77083e-015
lhumerus -50.745 11.0356 77.8621
lradius 25.4635
lwrist -17.0799
lhand -17.0003 -6.90483
lfingers 7.12502
lthumb 9.23507 22.8729
rfemur -5.42189 25.7538 25.8895
rtibia 2.11517
rfoot -10.4766 -24.0649
rtoes 1.95888
lfemur 4.28826 -43.8933 -10.4372
ltibia -4.61019
lfoot -20.9449 52.4554
ltoes 9.79042
98
root 0.603092 17.4461 9.23227 10.0141 -2.23286 -9.61261
lowerback 0.209211 1.52863 7.58585
upperback -9.7849 2.60509 1.07956
thorax -10.3143 0.674449 -3.29991
lowerneck -4.07023 -12.2111 -9.96446
upperneck 22.1182 -18.2159 9.56501
head 9.43806 -8.63704 2.93642
rclavicle -1.44119e-014 -3.81667e-014
rhumerus -46.2978 -14.7661 -78.3798
rradius 23.6174
rwrist 31.1135
rhand 10.0493 -35.2729
rfingers 7.12502
rthumb 35.1731 -61.7884
lclavicle -1.44119e-014 -3.81667e-014
lhumerus -50.7606 11.0164 77.9444
lradius 25.564
lwrist -16.8804
lhand -17.3101 -6.98872
lfingers 7.12502
lthumb 8.9361 22.802
rfemur -5.37477 25.723 25.9202
rtibia 2.10405
rfoot -10.4828 -24.0349
rtoes 2.07695
lfemur 4.34305 -43.903 -10.4601
ltibia -4.61835
lfoot -21.0165 52.4385
ltoes 9.93044
99
root 0.603209 17.4469 9.23403 9.95663 -2.20218 -9.62351
lowerback 0.224224 1.51258 7.61786
upperback -9.77367 2.58616 1.07968
thorax -10.3121 0.662724 -3.31637
lowerneck -3.98924 -12.2155 -9.98659
upperneck 22.1196 -18.2443 9.63421
head 9.43624 -8.64949 2.9641
rclavicle 6.36111e-015 4.6118e-014
rhumerus -46.326 -14.965 -78.2419
rradius 23.6628
rwrist 31.1901
rhand 10.0899 -35.372
rfingers 7.12502
rthumb 35.2116 -61.8784
lclavicle 6.36111e-015 4.6118e-014
lhumerus -50.8081 10.9178 78.0586
lradius 25.6895
lwrist -16.6392
lhand -17.5851 -6.8808
lfingers 7.12502
lthumb 8.67072 22.9211
rfemur -5.2919 25.7058 25.965
rtibia 2.09188
rfoot -10.5128 -24.0409
rtoes 2.04195
lfemur 4.41275 -43.8524 -10.4901
ltibia -4.62533
lfoot -20.9869 52.3577
ltoes 10.0011
